<?xml version="1.0" encoding="utf-8" ?><svg xmlns="http://www.w3.org/2000/svg" xmlns:xlink="http://www.w3.org/1999/xlink" width="1024" height="1024" viewBox="0 0 1024 1024"><path fill="#ECECEB" d="M0 0L174.22 0L850.754 0L1024 0L1024 170.155L1024 852.733L1024 1024L848.781 1024L175.622 1024L0 1024L0 846.258L0 177.716L0 0Z"/><path fill="#171718" d="M0 846.258C2.93576 859.785 3.65804 871.708 7.79391 885.391C21.4302 930.504 50.3102 968.655 89.8244 994.105C108.501 1006.1 129.157 1014.7 150.832 1019.49C156.998 1020.82 170.747 1022.44 175.622 1024L0 1024L0 846.258Z"/><path fill="#171718" d="M0 0L174.22 0C164.36 2.0258 154.667 3.25625 144.837 5.72546C98.6714 17.3211 58.0123 46.7943 31.735 86.6826C18.6774 106.273 9.48764 128.179 4.66099 151.222C3.35238 157.583 1.59147 172.71 0 177.716L0 0Z"/><path fill="#171718" d="M848.781 1024C850.925 1023.34 853.815 1022.82 856.048 1022.57C930.206 1014.24 993.785 960.081 1016.29 889.339C1020.16 877.182 1021.23 865.106 1024 852.733L1024 1024L848.781 1024Z"/><path fill="#171718" d="M850.754 0L1024 0L1024 170.155C1022.15 164.148 1020.95 152.68 1019.27 145.542C1013.73 122.773 1003.97 101.244 990.501 82.0699C965.987 47.0971 930.553 21.2544 889.763 8.59805C875.796 4.29095 864.977 2.39104 850.754 0Z"/><path fill="#2ECBA7" d="M514.319 198.5C518.366 198.428 553.38 213.167 560.906 215.942L624.675 239.357C635.772 243.412 647.519 247.407 658.47 251.702C664.238 253.969 669.891 256.518 675.409 259.339C691.768 267.79 706.254 279.005 711.912 297.219C712.834 300.145 713.39 303.174 713.567 306.236C714.097 315.419 713.403 329.421 713.434 339.2L713.556 369.645C713.627 390.626 714.268 393.522 704.584 412.129C717.287 430.788 713.458 455.86 713.467 478.012L713.432 573.056L713.512 629.892C713.552 646.794 716.055 665.142 706.409 679.674C685.97 710.464 639.933 723.891 606.212 732.5C613.783 739.47 623.231 746.394 631.349 752.934C646.557 765.186 660.989 778.301 676.527 790.091C680.067 792.777 687.608 797.994 686.255 802.951C685.072 804.014 683.012 804.869 681.672 804.415C673.852 801.768 663.915 795.936 656.644 792.456C643.404 786.118 630.385 780.077 617.347 773.578L575.296 752.646C570.649 750.373 555.304 742.597 551.114 742.113C542.904 741.165 527.502 742.151 518.802 742.445C512.561 742.578 506.317 742.476 500.084 742.141C496.49 741.947 482.295 740.858 479.97 741.654C465.597 746.574 446.936 757.074 433.443 763.831C413.626 773.811 393.699 783.573 373.667 793.115C366.362 796.607 357.107 801.642 349.385 803.795C347.736 804.254 346.817 803.658 345.493 802.772C344.049 799.85 346.334 796.965 348.639 795.14C374.222 774.882 399.461 752.365 425.425 732.767C392.536 724.563 332.327 705.791 319.861 668.527C317.934 662.765 318.486 646.576 318.54 639.879L318.793 608.942L318.934 521.91L318.812 467.006C318.567 444.115 315.175 432.411 327.404 412.094C325.502 409.059 324.159 406.652 322.772 403.314C320.598 398.039 319.269 392.455 318.832 386.767C318.536 383.338 318.554 379.401 318.663 375.932C319.404 351.67 318.495 326.861 319.306 302.667C319.766 288.923 332.508 273.599 343.655 266.65C369.446 250.571 400.265 241.443 428.51 230.96C457.207 220.31 486.151 210.111 514.319 198.5Z"/><path fill="#1EB889" d="M701.443 469.761C701.503 465.201 701.863 464.746 704.63 461.044L704.62 491.246C704.619 494.181 704.703 504.389 704.198 506.909L702.827 508.12C704.137 511.859 703.965 511.635 701.584 515.063C701.631 516.26 701.484 515.853 701.981 516.871L703.946 514.798L704.359 514.842C704.582 518.243 704.98 538.26 704.025 540.196L703.221 539.83L702.145 540.398C704.82 543.109 704.454 544.726 704.434 548.898C704.394 557.279 704.102 565.616 704.17 574.012L701.212 577.207L702.099 578.108L703.719 576.868C705.295 578.41 704.522 586.77 704.469 589.252C703.62 590.124 703.742 589.741 703.456 590.775C704.389 595.547 704.098 596.707 701.664 600.984C701.489 602.171 701.385 601.602 702.028 602.681L704.265 600.003C704.713 600.963 704.583 625.922 704.411 628.15C703.583 638.86 706.324 663.085 701.244 672.044C700.565 673.028 700.055 673.656 699.548 674.744C697.198 678.019 695.132 680.964 692.277 683.83L690.522 685.738C687.605 688.383 685.155 690.436 682.063 692.879L680.776 692.811L680.169 693.883C676.925 696.35 673.161 698.505 669.547 700.398L668.346 700.183L667.46 701.374C663.389 703.547 659.253 705.596 655.058 707.519C653.837 707.418 654.258 707.235 653.343 707.671C650.54 710.224 643.671 711.674 640.057 713.421L638.445 713.965C633.429 715.536 628.431 717.161 623.451 718.84L621.298 719.47C617.191 720.503 608.224 723.12 604.56 723.43L603.494 722.741L602.984 723.196C600.084 724.804 586.712 728.288 584.067 726.882L582.925 726.914L582.444 727.766C578.454 728.958 567.701 730.402 563.474 730.488L561.603 730.84C557.832 731.562 545.742 733.134 542.069 732.891L540.743 733.027C537.338 733.761 524.088 733.904 520.85 733.214L519.06 733.681C512.532 733.413 505.959 733.842 499.367 733.261C497.901 733.503 496.91 733.87 495.618 733.232C491.523 732.937 481.228 732.415 478.035 731.273L477.724 731.036L476.871 731.178C474.185 731.696 459.723 729.942 457.039 728.882L455.377 729.008C449.819 727.554 442.992 726.762 436.969 725.284L435.103 725.265C429.455 723.722 422.4 722.762 417.048 720.722L415.42 720.333C410.583 719.553 403.492 717.326 398.967 715.58L397.493 714.657C394.887 714.585 384.361 711.411 382.494 709.64L380.931 709.485C377.871 708.619 369.139 704.998 367.314 702.277L366.003 702.362C362.832 700.621 357.893 698.05 355.342 695.725C354.457 694.839 354.937 695.226 353.455 694.906C350.403 692.735 345.772 689.596 343.65 686.551C342.427 686.092 342.846 686.301 341.82 685.435C339.613 683.134 335.605 679.223 334.406 676.391L332.72 675.092C327.434 664.275 329.613 647.572 329.47 635.79C329.332 624.431 329.686 612.789 329.101 601.431C329.79 599.786 329.685 599.62 329.718 597.875L329.385 596.605C328.86 592.361 330.589 594.686 330.503 591.521C330.224 591.258 328.662 589.795 328.657 589.522C328.594 585.652 328.758 580.645 329.364 576.81C329.567 575.526 329.65 575.895 329.715 574.534L329.749 573.644C329.24 569.919 329.032 542.918 330.003 540.725L329.403 538.162C329.237 530.763 329.542 523.016 329.121 515.713C329.565 514.439 329.635 514.377 329.729 513.051C329.475 511.305 329.321 510.944 329.833 509.214L329.615 507.055C328.902 493.74 329.303 478.685 329.537 465.303C331.327 467.18 331.862 467.71 333.168 469.923L335.095 470.513C336.415 471.643 340.669 475.141 341.704 476.276L343.517 477.158C346.502 479.303 351.226 482.514 353.964 484.838L355.477 485.902C358.095 487.163 362.968 489.504 365.224 491.233L367.491 491.97C371.198 493.506 377.927 495.692 380.143 498.709C380.282 502.684 371.654 505.271 368.245 506.733L368.49 508.323C372.042 506.703 376.297 505.081 379.954 503.581C380.604 503.311 381.908 503.213 382.671 503.113C384.726 502.403 386.331 501.734 388.333 500.877C390.827 501.515 395.317 502.574 397.541 503.685L399.57 504.223C403.382 505.554 411.627 508.26 415.533 508.65L417.456 509.019C423.309 510.765 429.352 512.011 435.319 513.34L437.471 513.564C443.424 514.865 449.431 515.907 455.475 516.688L457.574 516.937C461.479 517.342 473.035 518.448 476.507 519.385L478.541 519.443C483.423 519.508 492.703 520.052 497.53 520.671L499.548 520.529C502.547 520.63 517.379 520.845 519.177 521.524L521.238 521.408C523.637 520.558 537.499 520.42 540.55 520.653L542.786 520.253C548.367 519.406 555.899 518.744 561.518 518.414L563.397 518.252C567.74 517.638 578.694 515.929 582.642 516.088L584.252 515.411C590.153 514.311 596.566 512.979 602.476 512.201L604.501 511.681C609.795 510.859 615.361 508.749 620.998 508C621.241 508.023 622.69 508.186 622.885 508.158C624.256 505.975 635.339 502.913 638.412 501.931L640.508 501.208C641.902 501.359 642.624 501.406 643.999 501.802L644.365 500.366C647.02 498.898 650.061 497.935 652.934 496.895L654.527 496.399C657.996 494.448 663.715 492.136 667.503 490.479L669.462 489.624C671.725 487.853 676.93 485.31 679.705 484.464L680.594 484.251L680.573 483.492C683.627 480.841 687.616 478.029 690.966 475.764L692.376 475.243C693.077 473.251 697.392 470.033 699.145 468.723L699.707 469.204L701.443 469.761Z"/><path fill="#ECECEB" d="M520.974 659.617C527.543 659.59 534.059 659.267 540.619 658.984C541.393 683.794 539.991 708.8 540.743 733.027C537.338 733.761 524.088 733.904 520.85 733.214C521.289 726.11 520.974 715.18 520.975 707.769L520.974 659.617Z"/><path fill="#ECECEB" d="M499.382 659.455C505.874 659.52 512.546 659.667 519.023 659.631L519.06 733.681C512.532 733.413 505.959 733.842 499.367 733.261L499.382 659.455Z"/><path fill="#ECECEB" d="M563.019 657.221L582.496 654.804L582.444 727.766C578.454 728.958 567.701 730.402 563.474 730.488C562.856 721.256 562.987 710.329 562.979 701.013L563.019 657.221Z"/><path fill="#ECECEB" d="M457.448 655.836C462.851 656.39 471.229 657.458 476.468 657.585L476.805 707.824C476.803 711.627 476.399 728.28 476.871 731.178C474.185 731.696 459.723 729.942 457.039 728.882C457.863 705.093 457.522 679.739 457.448 655.836Z"/><path fill="#ECECEB" d="M478.407 657.913C484.534 658.294 491.355 658.894 497.419 659.1L497.51 707.745C497.518 714.226 497.905 726.41 497.376 732.528C496.336 733.269 496.919 733.026 495.618 733.232C491.523 732.937 481.228 732.415 478.035 731.273C478.766 726.732 478.455 711.908 478.446 706.501L478.407 657.913Z"/><path fill="#ECECEB" d="M542.548 659.111C548.703 658.41 555.256 657.94 561.455 657.407L561.603 730.84C557.832 731.562 545.742 733.134 542.069 732.891C542.463 726.42 542.35 717.178 542.424 710.52L542.548 659.111Z"/><path fill="#ECECEB" d="M397.182 612.94C397.762 611.961 397.555 612.365 398.8 611.678L399.182 610.13C399.755 612.03 399.228 611.322 400.59 612.477L400.964 614.057L399.693 614.412C398.782 617.899 399.167 637.202 399.027 642.224L399.06 644.21C404.537 645.463 410.003 646.766 415.457 648.117C415.624 672.189 415.611 696.261 415.42 720.333C410.583 719.553 403.492 717.326 398.967 715.58L397.493 714.657L397.396 669.921C397.389 662.164 397.062 651.595 397.571 644.011C397.71 643.039 397.606 642.608 397.54 641.613C396.695 632.652 398.01 622.174 397.182 612.94Z"/><path fill="#2CC18F" d="M397.182 612.94C397.762 611.961 397.555 612.365 398.8 611.678L399.182 610.13C399.755 612.03 399.228 611.322 400.59 612.477L400.964 614.057L399.693 614.412C398.782 617.899 399.167 637.202 399.027 642.224L399.06 644.21C399.611 667.286 399.113 692.407 398.967 715.58L397.493 714.657L397.396 669.921C397.389 662.164 397.062 651.595 397.571 644.011C397.71 643.039 397.606 642.608 397.54 641.613C396.695 632.652 398.01 622.174 397.182 612.94Z"/><path fill="#ECECEB" d="M584.169 654.73C590.274 653.653 596.394 652.659 602.527 651.749L602.488 699.444C602.487 704.576 602.203 718.656 602.984 723.196C600.084 724.804 586.712 728.288 584.067 726.882C584.458 719.367 584.11 708.79 584.09 700.958L584.169 654.73Z"/><path fill="#ECECEB" d="M437.178 652.75C443.293 653.53 449.403 654.557 455.473 655.313L455.377 729.008C449.819 727.554 442.992 726.762 436.969 725.284C437.005 702.733 436.278 674.882 437.178 652.75Z"/><path fill="#ECECEB" d="M417.254 648.328C423.2 649.733 429.166 651.05 435.15 652.281C435.759 672.427 435.108 692.858 435.225 713.028C435.247 716.956 435.306 721.357 435.103 725.265C429.455 723.722 422.4 722.762 417.048 720.722C417.451 696.593 417.52 672.46 417.254 648.328Z"/><path fill="#ECECEB" d="M604.28 651.33C609.963 650.004 615.669 648.78 621.395 647.657C621.314 671.287 620.838 695.976 621.298 719.47C617.191 720.503 608.224 723.12 604.56 723.43C603.514 699.112 604.451 675.53 604.28 651.33Z"/><path fill="#ECECEB" d="M622.994 647.251C627.443 645.97 633.301 644.104 637.735 643.226L638.482 643.796L639.423 643.388L639.91 643.742C640.724 666.537 639.476 690.544 640.057 713.421L638.445 713.965C633.429 715.536 628.431 717.161 623.451 718.84C622.401 716.721 622.985 655.274 622.994 647.251Z"/><path fill="#2CC18F" d="M638.482 643.796L639.423 643.388L639.91 643.742C640.724 666.537 639.476 690.544 640.057 713.421L638.445 713.965C637.866 691.452 638.438 666.469 638.482 643.796Z"/><path fill="#ECECEB" d="M382.939 639.123C385.906 640.08 395.512 642.663 397.571 644.011C397.062 651.595 397.389 662.164 397.396 669.921L397.493 714.657C394.887 714.585 384.361 711.411 382.494 709.64C383.044 703.66 382.788 692.252 382.805 686.001L382.939 639.123Z"/><path fill="#ECECEB" d="M417.417 559.812C423.217 561.294 429.611 562.056 434.797 563.411L435.338 565.281C434.858 568.378 435.035 579.614 435.027 583.327L434.975 619.589L417.035 616.168C417.023 598.284 417.455 579.116 417.006 561.353L417.417 559.812Z"/><path fill="#1EB889" d="M417.417 559.812C423.217 561.294 429.611 562.056 434.797 563.411L435.338 565.281C432.926 564.259 420.06 561.854 417.006 561.353L417.417 559.812Z"/><path fill="#ECECEB" d="M435.319 513.34L437.471 513.564C443.424 514.865 449.431 515.907 455.475 516.688L455.467 566.217C451.908 566.025 439.012 563.764 437.217 564.083C436.393 564.955 436.477 564.94 435.338 565.281L434.797 563.411C435.417 560.279 435.309 549.522 435.327 545.978C435.437 535.099 435.435 524.219 435.319 513.34Z"/><path fill="#2CC18F" d="M435.319 513.34L437.471 513.564C436.243 518.706 436.804 556.836 437.217 564.083C436.393 564.955 436.477 564.94 435.338 565.281L434.797 563.411C435.417 560.279 435.309 549.522 435.327 545.978C435.437 535.099 435.435 524.219 435.319 513.34Z"/><path fill="#ECECEB" d="M563.397 518.252C567.74 517.638 578.694 515.929 582.642 516.088C582.171 521.283 582.418 529.418 582.427 534.923L582.468 566.043C576.494 566.859 569.064 567.929 563.073 568.16C562.97 551.524 563.078 534.886 563.397 518.252Z"/><path fill="#ECECEB" d="M499.548 520.529C502.547 520.63 517.379 520.845 519.177 521.524C518.709 537.214 519.032 554.332 519.024 570.129C512.529 570.223 505.822 570.086 499.31 570.023C499.021 553.807 499.408 536.801 499.548 520.529Z"/><path fill="#ECECEB" d="M521.238 521.408C523.637 520.558 537.499 520.42 540.55 520.653C540.458 536.89 540.516 553.127 540.725 569.363C536.289 570.244 525.77 570.115 520.945 570.164C520.883 555.371 520.323 535.858 521.238 521.408Z"/><path fill="#ECECEB" d="M457.574 516.937C461.479 517.342 473.035 518.448 476.507 519.385L476.498 568.682C470.102 567.991 463.401 567.376 457.07 566.397C456.814 550.529 456.723 532.67 457.574 516.937Z"/><path fill="#ECECEB" d="M542.786 520.253C548.367 519.406 555.899 518.744 561.518 518.414C561.489 535.003 561.315 551.814 561.468 568.385C556.552 568.774 547.124 569.733 542.529 569.365C542.496 552.994 542.582 536.623 542.786 520.253Z"/><path fill="#ECECEB" d="M478.541 519.443C483.423 519.508 492.703 520.052 497.53 520.671L497.472 569.981C491.357 569.809 484.536 569.258 478.38 568.888C478.301 552.406 478.355 535.924 478.541 519.443Z"/><path fill="#ECECEB" d="M584.252 515.411C590.153 514.311 596.566 512.979 602.476 512.201L602.554 562.799C596.905 564.172 589.882 565.121 584.039 566.062C584.111 549.413 584.464 531.974 584.252 515.411Z"/><path fill="#ECECEB" d="M639.91 643.742C640.858 641.184 650.125 638.889 653.034 637.937C653.177 653.337 653.214 668.738 653.145 684.138C653.129 688.746 652.794 704.271 653.343 707.671C650.54 710.224 643.671 711.674 640.057 713.421C639.476 690.544 640.724 666.537 639.91 643.742Z"/><path fill="#ECECEB" d="M367.92 633.329C372.24 635.115 376.586 636.837 380.956 638.494L380.931 709.485C377.871 708.619 369.139 704.998 367.314 702.277C368.535 699.47 367.765 641.509 367.92 633.329Z"/><path fill="#ECECEB" d="M417.456 509.019C423.309 510.765 429.352 512.011 435.319 513.34C435.435 524.219 435.437 535.099 435.327 545.978C435.309 549.522 435.417 560.279 434.797 563.411C429.611 562.056 423.217 561.294 417.417 559.812C417.445 543.621 416.824 524.942 417.456 509.019Z"/><path fill="#ECECEB" d="M399.149 556.938C404.106 558.157 410.491 559.9 415.403 560.876C415.476 578.725 415.851 598.236 415.421 615.984C410.7 615 405.328 613.603 400.59 612.477C399.228 611.322 399.755 612.03 399.182 610.13C400.05 594.598 399.181 572.963 399.149 556.938Z"/><path fill="#ECECEB" d="M654.915 637.335C657.849 635.753 664.269 633.24 667.562 631.832L667.46 701.374C663.389 703.547 659.253 705.596 655.058 707.519C654.477 684.744 655.048 660.327 654.915 637.335Z"/><path fill="#ECECEB" d="M604.501 511.681C609.795 510.859 615.361 508.749 620.998 508C621.623 513.698 621.43 522.087 621.397 527.925L621.084 558.594C615.592 560.026 610.066 561.322 604.51 562.481L604.501 511.681Z"/><path fill="#ECECEB" d="M399.57 504.223C403.382 505.554 411.627 508.26 415.533 508.65C415.728 525.585 415.713 542.522 415.489 559.457C410.009 558.217 404.558 556.857 399.138 555.377C399.133 538.325 399.277 521.273 399.57 504.223Z"/><path fill="#ECECEB" d="M638.412 501.931C638.554 519.32 638.587 536.71 638.513 554.1C633.364 555.562 628.189 556.93 622.99 558.202C622.979 543.25 623.661 522.619 622.885 508.158C624.256 505.975 635.339 502.913 638.412 501.931Z"/><path fill="#ECECEB" d="M388.333 500.877C390.827 501.515 395.317 502.574 397.541 503.685C397.765 520.778 397.754 537.873 397.507 554.965C392.453 553.475 387.444 551.835 382.488 550.047C382.482 534.545 382.299 518.573 382.671 503.113C384.726 502.403 386.331 501.734 388.333 500.877Z"/><path fill="#ECECEB" d="M355.468 626.489C359.015 628.254 362.491 630.158 365.889 632.195C366.022 654.742 366.549 679.987 366.003 702.362C362.832 700.621 357.893 698.05 355.342 695.725C355.894 673.112 355.16 649.335 355.468 626.489Z"/><path fill="#E2E5E8" d="M690.879 616.648L692.542 615.032C692.88 638.085 692.123 660.937 692.277 683.83L690.522 685.738C687.605 688.383 685.155 690.436 682.063 692.879C681.606 686.335 681.794 676.444 681.796 669.748C681.904 654.419 681.878 639.09 681.717 623.761C684.742 621.354 687.797 618.983 690.879 616.648Z"/><path fill="#2CC18F" d="M690.879 616.648L692.542 615.032C692.88 638.085 692.123 660.937 692.277 683.83L690.522 685.738C689.625 663.169 691.582 639.227 690.879 616.648Z"/><path fill="#ECECEB" d="M669.443 630.752C673.053 629.027 676.465 627.197 679.989 625.316C679.879 648.172 679.939 671.028 680.169 693.883C676.925 696.35 673.161 698.505 669.547 700.398C669.126 694.41 669.437 683.38 669.437 677.05L669.443 630.752Z"/><path fill="#ECECEB" d="M344.018 617.7L353.48 624.863C353.494 631.042 354.34 692.615 353.455 694.906C350.403 692.735 345.772 689.596 343.65 686.551C344.289 679.255 344.011 668.64 344.015 661.079L344.018 617.7Z"/><path fill="#ECECEB" d="M640.508 501.208C641.902 501.359 642.624 501.406 643.999 501.802C646.797 503.114 649.929 504.187 652.843 505.267C653.197 519.39 652.985 534.437 653.031 548.633C648.631 550.665 645.072 551.935 640.49 553.47C640.435 537.27 639.76 517.005 640.508 501.208Z"/><path fill="#ECECEB" d="M379.954 503.581C381.776 506.521 380.6 543.302 380.659 549.397L367.539 543.965C367.507 537.065 367.301 517.241 367.597 509.485C367.601 509.396 368.323 508.452 368.49 508.323C372.042 506.703 376.297 505.081 379.954 503.581Z"/><path fill="#E2E5E8" d="M334.657 609.085C336.872 611.208 339.127 613.289 341.419 615.328L342.151 616.059C342.256 631.937 342.263 647.815 342.171 663.692C342.163 667.293 342.353 682.533 341.82 685.435C339.613 683.134 335.605 679.223 334.406 676.391C335.136 666.581 334.577 647.841 334.562 637.306L334.657 609.085Z"/><path fill="#E2E5E8" d="M692.542 615.032C694.836 612.398 697.181 609.809 699.576 607.267C699.472 628.77 698.812 653.447 699.548 674.744C697.198 678.019 695.132 680.964 692.277 683.83C692.123 660.937 692.88 638.085 692.542 615.032Z"/><path fill="#ECECEB" d="M399.027 642.224C399.167 637.202 398.782 617.899 399.693 614.412L400.964 614.057C403.755 614.908 412.238 617.303 414.948 617.204C415.977 621.097 415.429 640.996 415.446 646.34C410.434 645.379 403.924 643.81 399.027 642.224Z"/><path fill="#ECECEB" d="M382.783 609.136C386.045 610.028 394.445 612.651 397.182 612.94C398.01 622.174 396.695 632.652 397.54 641.613C394.423 641.207 386.17 638.202 382.815 637.03L382.783 609.136Z"/><path fill="#ECECEB" d="M342.665 588.675L343.755 588.632L344.09 589.876C347.164 592.13 350.205 593.78 353.516 595.666L353.61 622.985C352.437 622.089 344.843 616.197 344.159 615.873L342.151 616.059L341.419 615.328C341.958 614.94 342.167 614.985 342.812 614.884L342.513 614.203C342.467 610.165 342 591.783 342.665 588.675Z"/><path fill="#2CC18F" d="M342.665 588.675L343.755 588.632L344.09 589.876C344.076 596.697 343.647 609.694 344.159 615.873L342.151 616.059L341.419 615.328C341.958 614.94 342.167 614.985 342.812 614.884L342.513 614.203C342.467 610.165 342 591.783 342.665 588.675Z"/><path fill="#ECECEB" d="M679.705 484.464C679.028 489.657 679.66 509.22 679.693 515.753C676.44 513.927 672.84 511.798 669.495 510.244C669.486 503.512 669.613 496.314 669.462 489.624C671.725 487.853 676.93 485.31 679.705 484.464Z"/><path fill="#E2E5E8" d="M329.101 601.431L332.939 605.86C332.947 612.019 332.575 626.05 333.088 631.675C332.891 640.858 332.865 650.043 333.013 659.226C333.035 662.313 333.221 672.492 332.72 675.092C327.434 664.275 329.613 647.572 329.47 635.79C329.332 624.431 329.686 612.789 329.101 601.431Z"/><path fill="#E2E5E8" d="M355.477 485.902C358.095 487.163 362.968 489.504 365.224 491.233C365.483 496.556 365.417 502.716 365.471 508.112C362.238 510.008 358.684 511.749 355.331 513.462C355.444 504.276 355.492 495.089 355.477 485.902Z"/><path fill="#E2E5E8" d="M335.18 583.133C337.887 585.058 339.671 586.844 342.665 588.675C342 591.783 342.467 610.165 342.513 614.203C339.918 612.381 336.793 609.035 334.475 606.709C334.473 600.789 334.182 588.521 335.18 583.133Z"/><path fill="#E2E5E8" d="M702.028 602.681L704.265 600.003C704.713 600.963 704.583 625.922 704.411 628.15C703.583 638.86 706.324 663.085 701.244 672.044C700.879 667.861 701.595 603.659 702.028 602.681Z"/><path fill="#E2E5E8" d="M692.376 475.243C693.077 473.251 697.392 470.033 699.145 468.723L699.707 469.204C700.638 477.827 699.552 492.319 699.883 501.694L692.807 494.392C692.86 490.892 693.219 478.007 692.376 475.243Z"/><path fill="#E2E5E8" d="M667.503 490.479L667.546 509.14C663.713 507.555 658.279 505.49 654.715 503.63L654.527 496.399C657.996 494.448 663.715 492.136 667.503 490.479Z"/><path fill="#E2E5E8" d="M334.88 500.37C334.876 492.43 334.377 477.755 335.095 470.513C336.415 471.643 340.669 475.141 341.704 476.276C341.492 481.16 341.816 488.475 341.907 493.519L334.88 500.37Z"/><path fill="#E2E5E8" d="M329.537 465.303C331.327 467.18 331.862 467.71 333.168 469.923L333.125 470.378C332.2 481.215 334.201 493.18 332.497 503.974C332.317 505.117 330.519 506.368 329.615 507.055C328.902 493.74 329.303 478.685 329.537 465.303Z"/><path fill="#E2E5E8" d="M701.443 469.761C701.503 465.201 701.863 464.746 704.63 461.044L704.62 491.246C704.619 494.181 704.703 504.389 704.198 506.909C703.425 506.201 702.006 504.393 701.866 503.399C700.312 492.358 701.855 480.956 701.443 469.761Z"/><path fill="#E2E5E8" d="M330.003 540.725C330.901 539.662 331.726 538.219 332.767 538.04C333.263 550.94 332.189 565.362 332.952 578L329.749 573.644C329.24 569.919 329.032 542.918 330.003 540.725Z"/><path fill="#E2E5E8" d="M367.491 491.97C371.198 493.506 377.927 495.692 380.143 498.709C380.282 502.684 371.654 505.271 368.245 506.733C366.887 504.557 367.459 495.122 367.491 491.97Z"/><path fill="#E2E5E8" d="M701.212 577.207C700.383 572.886 701.355 546.446 701.489 540.493L702.145 540.398C704.82 543.109 704.454 544.726 704.434 548.898C704.394 557.279 704.102 565.616 704.17 574.012L701.212 577.207Z"/><path fill="#E2E5E8" d="M690.966 475.764L690.998 493.11C688.92 491.262 681.921 485.3 680.573 483.492C683.627 480.841 687.616 478.029 690.966 475.764Z"/><path fill="#E2E5E8" d="M343.517 477.158C346.502 479.303 351.226 482.514 353.964 484.838C352.75 486.225 345.413 490.649 343.495 491.856C343.391 486.957 343.399 482.057 343.517 477.158Z"/><path fill="#E2E5E8" d="M701.981 516.871L703.946 514.798L704.359 514.842C704.582 518.243 704.98 538.26 704.025 540.196L703.221 539.83C700.597 536.081 700.934 521.337 701.981 516.871Z"/><path fill="#E2E5E8" d="M329.121 515.713C330.364 516.18 331.474 518.239 332.405 519.545L332.454 534.755L329.403 538.162C329.237 530.763 329.542 523.016 329.121 515.713Z"/><path fill="#E2E5E8" d="M702.099 578.108L703.719 576.868C705.295 578.41 704.522 586.77 704.469 589.252C701.453 586.109 699.276 582.285 702.099 578.108Z"/><path fill="#E2E5E8" d="M332.993 588.953C332.963 592.677 333.111 600.78 332.596 604.131L329.718 597.875L329.385 596.605C330.577 593.942 331.668 591.561 332.993 588.953Z"/><path fill="#E2E5E8" d="M652.934 496.895L652.948 503.366C650.081 502.382 647.22 501.382 644.365 500.366C647.02 498.898 650.061 497.935 652.934 496.895Z"/><path fill="#E2E5E8" d="M329.833 509.214L331.489 507.897L332.322 508.108C333.354 510.561 332.768 515.502 332.649 518.431L329.729 513.051C329.475 511.305 329.321 510.944 329.833 509.214Z"/><path fill="#E2E5E8" d="M701.664 600.984C701.541 598.205 700.91 592.161 702.179 589.921L703.456 590.775C704.389 595.547 704.098 596.707 701.664 600.984Z"/><path fill="#E2E5E8" d="M701.584 515.063C701.489 512.881 701.123 509.471 701.774 507.53L702.827 508.12C704.137 511.859 703.965 511.635 701.584 515.063Z"/><path fill="#ECECEB" d="M640.011 556.464C641.415 553.94 649.537 551.803 652.992 550.514L653.045 606.809C648.993 608.167 644.225 609.899 640.157 610.986L638.486 611.412C633.265 612.916 628.311 613.936 623.008 615.072L622.963 559.846C626.136 559.01 635.345 556.281 637.989 556.195L638.762 556.974L640.011 556.464Z"/><path fill="#ECECEB" d="M640.011 556.464C641.415 553.94 649.537 551.803 652.992 550.514L653.045 606.809C648.993 608.167 644.225 609.899 640.157 610.986L638.486 611.412L638.447 576.745C638.444 570.914 638.196 562.506 638.762 556.974L640.011 556.464Z"/><path fill="#2CC18F" d="M638.762 556.974L640.011 556.464C640.756 573.582 639.898 593.506 640.157 610.986L638.486 611.412L638.447 576.745C638.444 570.914 638.196 562.506 638.762 556.974Z"/><path fill="#ECECEB" d="M528.117 571.777L540.653 571.383C540.828 589.462 541.245 607.84 540.452 625.882C538.008 625.997 535.564 626.132 533.122 626.286C529.622 626.595 524.559 626.484 520.94 626.512L520.972 572.029L528.117 571.777Z"/><path fill="#ECECEB" d="M499.432 571.605C506.01 572.03 512.444 571.976 519.031 571.984L519.091 606.229C519.096 612.295 519.308 620.636 518.892 626.505C512.367 626.528 505.842 626.485 499.318 626.378C499.141 608.12 499.18 589.861 499.432 571.605Z"/><path fill="#ECECEB" d="M576.565 568.3L582.446 567.765L582.463 622.341C578.123 622.628 573.248 623.232 568.879 623.673C567.033 623.881 564.943 623.939 563.068 624.039L563.035 569.644C567.496 569.414 572.112 568.809 576.565 568.3Z"/><path fill="#ECECEB" d="M457.354 568.011C463.561 568.826 470.194 569.44 476.447 570.125L476.454 624.62C470.251 624.123 463.477 623.277 457.241 622.627C457.023 604.42 457.363 586.23 457.354 568.011Z"/><path fill="#ECECEB" d="M478.428 570.312C484.779 570.694 491.127 571.113 497.472 571.567L497.482 626.128C491.586 626.035 484.314 625.315 478.318 624.855L478.428 570.312Z"/><path fill="#ECECEB" d="M556.616 570.284C558.249 570.146 559.81 569.749 561.106 570.56C561.711 572.958 561.499 584.798 561.498 588.048L561.471 624.34C556.441 624.605 551.006 625.254 545.876 625.599C544.071 625.782 544.298 625.992 542.801 625.357C541.692 622.059 542.504 577.799 542.521 571.183C547.222 570.923 551.92 570.623 556.616 570.284Z"/><path fill="#ECECEB" d="M437.02 565.237C443.286 566.176 449.172 567.037 455.475 567.696L455.467 622.581C449.375 621.911 442.994 621.104 437.005 619.853L437.02 565.237Z"/><path fill="#ECECEB" d="M601.908 564.716C601.931 564.731 601.961 564.74 601.976 564.763C603.51 567.035 602.512 613.486 602.493 619.264C596.728 620.333 590.131 621.185 584.281 622.069L583.998 567.679C589.616 566.567 596.191 565.651 601.908 564.716Z"/><path fill="#ECECEB" d="M622.993 616.928C626.89 615.277 633.82 614.359 638.485 612.867L638.479 641.153C635.482 642.205 624.69 645.113 623.018 646.108L622.169 646.867L621.502 646.397C619.497 646.35 607.222 649.249 604.458 649.865C604.329 640.114 604.349 630.361 604.518 620.611C609.5 619.328 616.798 618.279 621.424 616.749L622.993 616.928Z"/><path fill="#ECECEB" d="M622.993 616.928C626.89 615.277 633.82 614.359 638.485 612.867L638.479 641.153C635.482 642.205 624.69 645.113 623.018 646.108C623.173 636.536 623.008 626.533 622.993 616.928Z"/><path fill="#2CC18F" d="M621.424 616.749L622.993 616.928C623.008 626.533 623.173 636.536 623.018 646.108L622.169 646.867L621.502 646.397C621.198 637.469 621.173 625.668 621.424 616.749Z"/><path fill="#ECECEB" d="M619.847 560.589L620.544 560.646C621.546 562.003 621.206 610.111 621.268 615.429C616.562 616.515 611.362 617.503 606.603 618.496C605.122 618.631 605.764 618.813 604.589 618.028C604.2 613.385 604.494 604.126 604.505 599.207L604.58 564.146L619.847 560.589Z"/><path fill="#ECECEB" d="M382.494 551.892L397.471 556.387L397.454 611.194C394.122 610.818 386.048 608.255 382.506 607.182L382.494 551.892Z"/><path fill="#ECECEB" d="M379.685 553.043L379.924 553.135C380.117 553.414 380.31 553.693 380.503 553.972C380.575 569.307 380.543 592.092 380.517 606.516L371.648 602.93L367.58 601.084L367.54 558.011C371.211 556.3 375.868 554.574 379.685 553.043Z"/><path fill="#ECECEB" d="M437.008 621.234C441.012 621.934 451.916 623.964 455.445 623.427L456 622.698L456.718 622.849C457.215 628.829 456.454 636.25 457.108 641.752L457.101 643.248C456.938 645.627 456.964 652.283 456.535 653.825L455.525 653.639C452.781 654.033 440.441 651.603 437.063 650.997L437.008 621.234Z"/><path fill="#2CC18F" d="M455.445 623.427L456 622.698L456.718 622.849C457.215 628.829 456.454 636.25 457.108 641.752L457.101 643.248C456.938 645.627 456.964 652.283 456.535 653.825L455.525 653.639C455.302 643.867 455.463 633.259 455.445 623.427Z"/><path fill="#ECECEB" d="M534.812 627.721L540.578 627.522C540.891 637.584 540.71 647.236 540.517 657.28L528.076 657.636C525.767 657.785 523.243 657.829 520.912 657.918C520.844 647.985 520.839 638.052 520.895 628.12C525.536 628.08 530.176 627.947 534.812 627.721Z"/><path fill="#ECECEB" d="M655.011 554.069C659.211 555.856 663.391 558.049 667.478 560.107C667.51 571.031 667.938 589.719 667.232 601.157C667.202 601.654 665.528 602.206 664.829 602.519C661.588 603.809 658.306 604.99 654.986 606.061L655.011 554.069Z"/><path fill="#ECECEB" d="M499.412 628.01L518.995 628.09L519.034 657.919C512.342 657.984 505.993 658.023 499.314 657.515L499.412 628.01Z"/><path fill="#ECECEB" d="M562.84 625.422C569.181 625.408 575.925 624.131 582.243 623.889C582.524 633.704 582.61 643.524 582.502 653.342C578.694 653.847 566.25 655.735 562.946 655.309C563.302 652.107 563.103 628.892 562.84 625.422Z"/><path fill="#ECECEB" d="M457.308 624.316C463.478 624.792 470.473 625.797 476.411 626.112L476.438 656.074C470.052 655.51 463.674 654.87 457.304 654.152C457.293 650.911 457.404 646.36 457.101 643.248L457.108 641.752C457.41 635.976 457.319 630.105 457.308 624.316Z"/><path fill="#ECECEB" d="M542.489 627.587C548.798 626.974 555.111 626.408 561.429 625.888C561.46 629.964 561.999 653.662 561.062 655.875C555.769 655.988 547.96 656.884 542.513 657.351C542.397 647.509 542.493 637.445 542.489 627.587Z"/><path fill="#ECECEB" d="M478.449 626.48C483.718 626.532 491.994 627.408 497.466 627.819L497.488 657.491C492.499 657.565 483.657 656.651 478.378 656.247L478.449 626.48Z"/><path fill="#ECECEB" d="M600.879 621.253L601.974 621.272C603.02 623.22 602.546 646.402 602.533 650.251C597.082 651.23 591.609 652.079 586.118 652.799L585.306 652.823C583.859 651.374 584.102 627.85 584.065 623.683C589.453 622.71 595.432 621.972 600.879 621.253Z"/><path fill="#ECECEB" d="M417.093 617.886C420.933 618.146 430.8 620.202 435.005 620.951C435.216 630.712 435.091 640.917 435.116 650.712C429.096 649.576 423.104 648.295 417.146 646.869C416.946 637.362 417.091 627.425 417.093 617.886Z"/><path fill="#ECECEB" d="M654.955 506.088C658.421 507.123 663.997 509.604 667.501 511.04C667.693 521.434 667.792 531.829 667.798 542.225C666.833 542.936 665.314 543.592 664.195 544.144L655.02 548.063C654.922 534.071 654.9 520.079 654.955 506.088Z"/><path fill="#E2E5E8" d="M692.383 587.658C693.897 586.237 696.582 583.384 698.359 582.762C700.3 585.625 699.79 600.656 699.808 605.124C697.579 607.496 694.977 610.407 692.674 612.628L692.163 612.853L691.684 612.212L690.839 613.007C690.681 616.06 684.561 619.433 681.988 621.203C681.972 612.967 682.136 603.804 681.71 595.653L690.408 589.454C691.255 588.771 691.607 588.417 692.383 587.658Z"/><path fill="#E2E5E8" d="M692.383 587.658C693.897 586.237 696.582 583.384 698.359 582.762C700.3 585.625 699.79 600.656 699.808 605.124C697.579 607.496 694.977 610.407 692.674 612.628L692.163 612.853L691.684 612.212L690.839 613.007C690.271 605.818 690.621 596.949 690.408 589.454C691.255 588.771 691.607 588.417 692.383 587.658Z"/><path fill="#2CC18F" d="M690.408 589.454C691.255 588.771 691.607 588.417 692.383 587.658C692.623 595.009 692.145 605.87 692.674 612.628L692.163 612.853L691.684 612.212L690.839 613.007C690.271 605.818 690.621 596.949 690.408 589.454Z"/><path fill="#ECECEB" d="M669.49 560.246C673.283 562.063 676.487 563.947 680.06 566.14C679.907 574.946 680.633 585.342 679.853 594.178C679.74 595.451 678.772 595.697 677.583 596.454C675.297 597.757 671.88 599.301 669.426 600.487C669.356 587.073 669.377 573.659 669.49 560.246Z"/><path fill="#ECECEB" d="M365.444 558.99C366.337 561.583 365.61 594.617 365.785 600.345L358.96 597.188L355.427 595.154C355.475 585.995 355.776 573.431 355.161 564.517C358.267 562.638 362.177 560.705 365.444 558.99Z"/><path fill="#ECECEB" d="M652.455 608.613C653.529 609.752 653.145 632.772 653.166 636.182C648.901 637.762 645.084 639.214 640.684 640.429C639.811 639.323 640.091 616.272 640.037 612.429C643.977 611.371 648.511 609.838 652.455 608.613Z"/><path fill="#ECECEB" d="M367.817 603.096C371.791 604.573 376.572 606.735 380.553 608.403C380.818 617.512 380.688 627.333 380.74 636.5C376.244 634.687 372.131 632.989 367.709 630.962C368.086 621.784 367.288 612.171 367.817 603.096Z"/><path fill="#ECECEB" d="M666.578 603.523L667.165 603.759C667.762 606.442 667.588 626.041 667.601 630.035C663.507 632.092 660.021 633.502 655.753 635.131L655.533 635.188L654.988 634.788C654.725 626.086 654.881 616.628 654.856 607.868C658.211 606.409 663.049 604.809 666.578 603.523Z"/><path fill="#E2E5E8" d="M339.978 527.792L340.924 528.283C342.453 530.625 342.045 566.774 342.081 572.738C339.831 574.93 337.976 577.265 335.966 579.674L335.314 580.22C335.105 580.002 334.896 579.784 334.687 579.565C334.284 567.109 334.588 545.352 334.71 533.557C336.536 531.401 338.022 529.803 339.978 527.792Z"/><path fill="#E2E5E8" d="M690.42 529.994C691.382 531.451 690.541 568.329 690.503 572.936L686.537 569.619L681.568 565.707C681.794 556.324 681.55 546.082 681.512 536.635C684.465 534.759 687.623 532.173 690.42 529.994Z"/><path fill="#ECECEB" d="M343.929 531.504C347.078 533.748 350.216 535.734 353.475 537.816L353.574 564.185L349.479 566.973L343.966 570.774C343.938 560.174 343.062 541.27 343.929 531.504Z"/><path fill="#E2E5E8" d="M692.98 529.362C694.604 530.848 697.818 534.541 699.445 536.299C699.489 547.266 700.081 570.15 698.624 579.715L698.119 579.745C696.496 579.064 693.857 576.304 692.444 574.972L692.98 529.362Z"/><path fill="#ECECEB" d="M364.506 510.433L365.09 510.564C365.921 512.198 365.605 539.077 365.605 542.977L358.893 539.446L355.093 537.252L354.984 515.447C357.773 513.804 361.569 511.96 364.506 510.433Z"/><path fill="#ECECEB" d="M355.473 597.121L365.731 602.122C366.057 610.991 366 621.161 365.902 630.009C362.914 628.849 358.224 625.896 355.443 624.212C355.615 615.341 355.471 606.026 355.473 597.121Z"/><path fill="#ECECEB" d="M681.304 486.929C684.556 489.212 688.009 492.347 691.059 494.974C690.96 502.365 690.558 516.6 691.114 523.705L690.896 524.092C689.708 524.172 683.764 518.879 681.458 517.371C681.482 507.223 681.431 497.076 681.304 486.929Z"/><path fill="#ECECEB" d="M679.142 597.448L679.866 597.981C680.537 604.521 679.966 615.826 680.327 623.159C677.154 624.976 673.937 626.712 670.677 628.367L669.92 628.338C669.186 626.692 669.406 605.672 669.395 602.093C672.951 600.623 675.711 599.219 679.142 597.448Z"/><path fill="#ECECEB" d="M352.359 487.929L352.959 487.978C354.054 489.617 353.494 511.272 353.472 514.948C350.36 517.071 347.394 519.47 344.43 521.801C343.499 520.801 343.573 496.943 343.533 493.659C346.534 491.455 349.169 489.865 352.359 487.929Z"/><path fill="#ECECEB" d="M669.53 512.043C673.54 513.773 675.789 514.991 679.591 517.192C679.403 522.952 680.17 529.376 679.588 535.127C679.441 536.584 678.416 536.92 677.252 537.674C674.539 539.229 672.369 540.294 669.559 541.635C669.472 531.771 669.463 521.907 669.53 512.043Z"/><path fill="#ECECEB" d="M679.119 538.479L679.492 538.629C680.185 540.353 679.936 560.787 679.945 564.191L674.047 560.916L669.518 558.546L669.549 543.648L679.119 538.479Z"/><path fill="#ECECEB" d="M352.877 566.426C354.101 568.127 353.642 590.398 353.643 594.164L347.55 590.418L344.012 588.004C344.057 582.931 344.041 577.857 343.964 572.784C346.799 570.637 349.954 568.49 352.877 566.426Z"/><path fill="#ECECEB" d="M355.257 539.381C357.419 540.111 363.23 543.264 365.529 544.443L365.71 557.13L362.25 558.98L355.447 562.591C355.441 554.854 355.377 547.117 355.257 539.381Z"/><path fill="#E2E5E8" d="M341.36 495.959C342.278 497.322 342.317 523.434 340.936 525.316C339.697 525.292 339.27 524.483 338.045 523.421L334.498 519.768C334.446 514.135 334.474 508.501 334.582 502.869C336.739 500.445 339.048 498.233 341.36 495.959Z"/><path fill="#E2E5E8" d="M681.894 567.786C684.109 569.263 688.171 572.746 690.39 574.542C690.225 578.647 690.357 583.185 690.393 587.325L687.299 589.879L681.969 593.807C681.858 585.134 681.833 576.46 681.894 567.786Z"/><path fill="#E2E5E8" d="M692.705 497.636C694.448 498.193 698.34 503.05 699.752 504.685C699.765 508.785 699.876 513.274 699.767 517.338C698.349 519.373 695.488 523.915 693.357 524.772L693.199 524.744C692.134 521.654 692.676 502.107 692.705 497.636Z"/><path fill="#E2E5E8" d="M353.286 516.896C353.779 519.345 353.553 532.999 353.528 536.138C351.502 534.901 349.294 533.298 347.318 531.934C338.63 525.253 347.371 521.159 353.286 516.896Z"/><path fill="#E2E5E8" d="M667.404 544.487C668.002 546.098 667.656 555.612 667.631 558.014C665.041 556.985 662.21 555.689 659.636 554.568C657.423 553.613 656.058 553.482 655.433 551.069C656.487 548.659 664.312 545.954 667.404 544.487Z"/><path fill="#E2E5E8" d="M681.539 519.153C683.996 520.326 688.995 525.285 691.024 527.32C689.634 528.659 688.014 529.905 686.505 531.124L681.547 534.74L681.539 519.153Z"/><path fill="#E2E5E8" d="M367.677 545.505C370.707 546.586 377.084 548.584 379.211 550.599L379.092 551.364L376.881 552.403L367.607 556.207L367.677 545.505Z"/><path fill="#E2E5E8" d="M699.209 520.912C699.999 521.869 700.12 531.694 698.862 532.945L697.445 531.697L693.681 527.183C695.345 525.118 697.42 522.909 699.209 520.912Z"/><path fill="#E2E5E8" d="M341.438 575.381L341.966 576.043C342.287 579.122 343.03 582.494 341.758 585.226L340.879 585.519L338.822 583.949L336.285 581.543C337.704 579.599 339.835 577.252 341.438 575.381Z"/><path fill="#ECECEB" d="M329.537 577.329C331.191 578.748 332.298 580.273 333.665 581.965C333.059 584.081 332.415 585.543 331.568 587.563C330.67 588.607 331.086 588.32 329.838 588.871C328.705 586.724 329.403 580.014 329.537 577.329Z"/><path fill="#ECECEB" d="M334.581 522.242C337.952 524.621 339.095 525.861 336.689 528.937C336.043 529.589 335.91 529.641 335.16 530.18C333.982 528.689 334.502 524.42 334.581 522.242Z"/><path fill="#ECECEB" d="M635.585 252.516C653.877 257.936 675.801 267.029 690.035 279.705C708.981 296.578 708.026 312.072 691.464 330.067C680.855 340.09 665.413 347.144 651.89 352.394C571.952 383.426 446.173 382.644 367.764 347.783C354.14 341.726 334.989 330.403 329.637 315.514C326.961 308.068 327.722 300.072 331.147 293.011C341.715 271.225 374.066 260.543 395.515 253.02L396.534 253.056C397.339 254.679 396.594 295.225 396.548 299.341C426.014 313.189 455.626 325.923 485.549 338.776C495.736 343.152 505.711 347.479 516.154 351.248C541.791 341.589 567.064 328.778 592.436 318.264C606.752 312.331 621.628 305.823 635.584 299.107L635.585 252.516Z"/><path fill="#ECECEB" d="M333.24 419.261C342.237 427.062 352.225 434.293 362.8 439.792C403.929 461.181 465.317 471.047 510.925 471.106C564.291 471.175 658.913 458.993 698.702 419.227C706.478 434.755 707.106 442.316 697.11 457.04C678.958 482.706 630.82 496.183 601.279 502.458C539.787 515.716 476.068 514.634 415.063 499.294C385.66 491.751 342.583 477.85 329.058 447.048C325.217 438.301 329.368 427.509 333.24 419.261Z"/><path fill="#ECECEB" d="M396.575 443.64C398.265 439.013 396.225 421.911 396.972 416.477C398.096 408.309 395.062 373.561 397.459 367.646C402.385 369.308 406.947 370.553 411.945 371.915L413.969 372.103C417.11 372.997 429.368 375.666 430.977 376.345L432.896 376.146C437.858 376.89 446.814 378.002 451.487 379.146C452.399 379.186 453.023 379.195 453.933 379.16C459.184 380.089 466.596 380.654 471.111 381.605L473.048 381.438C479.953 382.397 486.515 382.585 493.432 383.107L495.653 383.234C501.785 383.215 509.257 383.779 515.478 384.089L517.538 384.001C523.938 384.135 531.395 383.634 537.971 383.537L539.977 383.583C543.542 382.56 556.695 381.5 560.388 382.482C559.831 388.761 560.101 398.446 560.061 404.996C559.953 423.259 560.413 441.381 560.209 459.681C553.758 460.124 547.315 460.667 540.881 461.31C539.563 461.856 539.464 461.659 538.011 461.357C531.697 462.192 523.635 462.315 517.133 462.567L515.497 462.346C510.139 462.813 501.048 462.163 495.485 461.901C493.827 462.143 494.026 462.331 492.619 461.811C487.237 461.31 477.859 460.833 472.958 459.774L470.906 459.42C467.705 459.649 456.17 458.081 452.874 457.244L451 457.303C445.638 455.74 438.475 454.986 432.47 453.388L430.978 453.287C425.776 451.762 418.823 450.286 413.449 449.019L411.948 448.489C408.494 448.244 399.5 445.73 396.575 443.64Z"/><path fill="#ECECEB" d="M396.575 443.64C398.265 439.013 396.225 421.911 396.972 416.477C398.096 408.309 395.062 373.561 397.459 367.646C402.385 369.308 406.947 370.553 411.945 371.915L413.969 372.103C417.11 372.997 429.368 375.666 430.977 376.345L432.896 376.146C437.858 376.89 446.814 378.002 451.487 379.146C452.399 379.186 453.023 379.195 453.933 379.16C459.184 380.089 466.596 380.654 471.111 381.605C471.084 407.385 471.28 433.665 470.906 459.42C467.705 459.649 456.17 458.081 452.874 457.244L451 457.303C445.638 455.74 438.475 454.986 432.47 453.388L430.978 453.287C425.776 451.762 418.823 450.286 413.449 449.019L411.948 448.489C408.494 448.244 399.5 445.73 396.575 443.64Z"/><path fill="#ECECEB" d="M396.575 443.64C398.265 439.013 396.225 421.911 396.972 416.477C398.096 408.309 395.062 373.561 397.459 367.646C402.385 369.308 406.947 370.553 411.945 371.915L413.969 372.103C417.11 372.997 429.368 375.666 430.977 376.345C430.948 401.16 430.229 428.781 430.978 453.287C425.776 451.762 418.823 450.286 413.449 449.019L411.948 448.489C408.494 448.244 399.5 445.73 396.575 443.64Z"/><path fill="#ECECEB" d="M396.575 443.64C398.265 439.013 396.225 421.911 396.972 416.477C398.096 408.309 395.062 373.561 397.459 367.646C402.385 369.308 406.947 370.553 411.945 371.915L411.768 424.712C411.743 429.621 411.328 444.614 411.948 448.489C408.494 448.244 399.5 445.73 396.575 443.64Z"/><path fill="#1EB889" d="M411.945 371.915L413.969 372.103C413.149 374.995 413.483 391.605 413.456 395.591C413.338 413.351 413.657 431.255 413.449 449.019L411.948 448.489C411.328 444.614 411.743 429.621 411.768 424.712L411.945 371.915Z"/><path fill="#ECECEB" d="M432.896 376.146C437.858 376.89 446.814 378.002 451.487 379.146L451 457.303C445.638 455.74 438.475 454.986 432.47 453.388L430.978 453.287C430.229 428.781 430.948 401.16 430.977 376.345L432.896 376.146Z"/><path fill="#1EB889" d="M430.977 376.345L432.896 376.146C431.955 400.413 432.628 428.736 432.47 453.388L430.978 453.287C430.229 428.781 430.948 401.16 430.977 376.345Z"/><path fill="#1EB889" d="M451.487 379.146C452.399 379.186 453.023 379.195 453.933 379.16C452.293 382.905 453.004 447.88 452.874 457.244L451 457.303L451.487 379.146Z"/><path fill="#ECECEB" d="M471.111 381.605L473.048 381.438C479.953 382.397 486.515 382.585 493.432 383.107L495.653 383.234C501.785 383.215 509.257 383.779 515.478 384.089C515.196 410.174 515.203 436.261 515.497 462.346C510.139 462.813 501.048 462.163 495.485 461.901C493.827 462.143 494.026 462.331 492.619 461.811C487.237 461.31 477.859 460.833 472.958 459.774L470.906 459.42C471.28 433.665 471.084 407.385 471.111 381.605Z"/><path fill="#ECECEB" d="M495.653 383.234C501.785 383.215 509.257 383.779 515.478 384.089C515.196 410.174 515.203 436.261 515.497 462.346C510.139 462.813 501.048 462.163 495.485 461.901C495.479 435.978 495.134 409.075 495.653 383.234Z"/><path fill="#2CC18F" d="M471.111 381.605L473.048 381.438C472.69 407.515 473.142 433.699 472.958 459.774L470.906 459.42C471.28 433.665 471.084 407.385 471.111 381.605Z"/><path fill="#1EB889" d="M493.432 383.107L495.653 383.234C495.134 409.075 495.479 435.978 495.485 461.901C493.827 462.143 494.026 462.331 492.619 461.811C493.378 461.493 492.984 461.729 493.733 461.002C493.301 443.739 494.028 425.675 493.769 408.338C493.639 399.681 494.146 391.832 493.432 383.107Z"/><path fill="#ECECEB" d="M539.977 383.583C543.542 382.56 556.695 381.5 560.388 382.482C559.831 388.761 560.101 398.446 560.061 404.996C559.953 423.259 560.413 441.381 560.209 459.681C553.758 460.124 547.315 460.667 540.881 461.31C539.563 461.856 539.464 461.659 538.011 461.357C537.775 435.768 538.737 408.906 537.971 383.537L539.977 383.583Z"/><path fill="#1EB889" d="M537.971 383.537L539.977 383.583C540.602 400.937 539.826 418.334 539.658 435.654C539.612 440.38 539.102 456.341 539.671 460.504C540.521 461.242 540.092 461.017 540.881 461.31C539.563 461.856 539.464 461.659 538.011 461.357C537.775 435.768 538.737 408.906 537.971 383.537Z"/><path fill="#1EB889" d="M515.478 384.089L517.538 384.001C517.256 410.189 517.121 436.378 517.133 462.567L515.497 462.346C515.203 436.261 515.196 410.174 515.478 384.089Z"/><path fill="#ECECEB" d="M701.568 332.443C701.784 330.498 702.046 330.356 703.299 328.899L704.011 328.958C705.054 332.24 704.655 374.967 703.47 378.002L702.727 379.998C704.975 384.305 705.397 389.334 703.898 393.955C703.609 394.835 703.232 395.682 702.771 396.485C701.947 396.711 701.3 396.916 700.456 397.059C700.262 398.96 700.603 399.232 699.543 400.17L698.993 400.02L698.144 401.231C698.653 404.899 695.556 408.093 693.143 410.515L692.234 410.387C691.404 411.346 691.607 411.007 691.056 412.153C688.987 416.172 684.793 419.362 681.198 422.112L679.439 423.195C676.881 425.297 668.89 430.404 665.852 431.278L664.061 432.105C659.427 434.881 653.025 437.28 647.902 439.3L646.137 439.614C641.241 442.419 632.16 445.352 626.555 447.092L624.987 447.545C618.536 449.359 612.094 450.651 605.915 452.372C605.07 452.456 604.391 452.558 603.543 452.546C597.443 454.281 590.646 454.767 584.499 456.38L582.517 456.643C579.064 457.134 564.327 458.937 561.955 459.652L560.209 459.681C560.413 441.381 559.953 423.259 560.061 404.996C560.101 398.446 559.831 388.761 560.388 382.482C560.976 382.344 561.433 382.08 561.999 381.821C567.778 380.439 576.315 379.969 582.773 378.827L584.477 378.822C589.823 377.482 596.88 377.338 603.095 375.691L605.801 375.371C611.63 373.745 618.509 372.273 624.461 370.858L626.373 370.385C633.08 368.664 639.035 366.416 645.519 364.048L646.931 363.865C649.877 362.645 661.844 357.5 664.128 357.241C664.991 356.866 665.182 356.623 665.951 356.049C670.194 354.158 674.398 352.178 678.558 350.111L680.044 349.55C682.348 347.636 688.211 343.9 690.882 342.083L692.932 340.727C695.411 338.308 697.915 335.914 700.444 333.546L701.568 332.443Z"/><path fill="#1EB889" d="M701.568 332.443C701.784 330.498 702.046 330.356 703.299 328.899L704.011 328.958C705.054 332.24 704.655 374.967 703.47 378.002L702.727 379.998C704.975 384.305 705.397 389.334 703.898 393.955C703.609 394.835 703.232 395.682 702.771 396.485C701.947 396.711 701.3 396.916 700.456 397.059C700.262 398.96 700.603 399.232 699.543 400.17L698.993 400.02L698.144 401.231C698.653 404.899 695.556 408.093 693.143 410.515L692.234 410.387C691.404 411.346 691.607 411.007 691.056 412.153C688.987 416.172 684.793 419.362 681.198 422.112L679.439 423.195C676.881 425.297 668.89 430.404 665.852 431.278L664.061 432.105C659.427 434.881 653.025 437.28 647.902 439.3L646.137 439.614C645.154 421.491 647.041 400.715 646.4 382.358C646.248 378.022 646.679 367.614 645.519 364.048L646.931 363.865C649.877 362.645 661.844 357.5 664.128 357.241C664.991 356.866 665.182 356.623 665.951 356.049C670.194 354.158 674.398 352.178 678.558 350.111L680.044 349.55C682.348 347.636 688.211 343.9 690.882 342.083L692.932 340.727C695.411 338.308 697.915 335.914 700.444 333.546L701.568 332.443Z"/><path fill="#ECECEB" d="M647.983 367.583C652.838 369.299 659.247 372.404 664.062 374.569L664.061 432.105C659.427 434.881 653.025 437.28 647.902 439.3L647.983 367.583Z"/><path fill="#ECECEB" d="M665.99 375.585C670.357 377.835 674.832 380.521 679.107 382.988C679.092 396.391 679.203 409.794 679.439 423.195C676.881 425.297 668.89 430.404 665.852 431.278C665.768 412.714 665.814 394.149 665.99 375.585Z"/><path fill="#E2E5E8" d="M678.558 350.111C679.739 353.272 679.392 376.639 679.27 381.473C674.911 378.787 670.467 376.243 665.943 373.844C665.943 368.032 665.83 361.827 665.951 356.049C670.194 354.158 674.398 352.178 678.558 350.111Z"/><path fill="#E2E5E8" d="M681.009 384.459C684.457 387.317 687.824 390.272 691.106 393.32L691.056 412.153C688.987 416.172 684.793 419.362 681.198 422.112C680.391 413.524 680.956 393.744 681.009 384.459Z"/><path fill="#E2E5E8" d="M700.444 333.546C700.51 346.278 700.714 360.475 700.3 373.131C697.966 370.453 695.787 367.966 693.322 365.408C693.378 358.304 693.709 347.687 692.932 340.727C695.411 338.308 697.915 335.914 700.444 333.546Z"/><path fill="#E2E5E8" d="M693.036 367.102L700.216 375.614C700.522 382.658 700.207 389.909 700.456 397.059C700.262 398.96 700.603 399.232 699.543 400.17L698.993 400.02C697.833 398.508 694.481 395.263 692.991 393.751L693.036 367.102Z"/><path fill="#E2E5E8" d="M646.931 363.865C649.877 362.645 661.844 357.5 664.128 357.241C663.927 362.425 664.005 367.624 664.034 372.813C659.753 370.97 648.954 367.132 646.931 363.865Z"/><path fill="#E2E5E8" d="M690.882 342.083C691.782 345.061 691.424 359.751 691.386 363.562C687.91 360.086 681.39 354.201 680.044 349.55C682.348 347.636 688.211 343.9 690.882 342.083Z"/><path fill="#E2E5E8" d="M701.568 332.443C701.784 330.498 702.046 330.356 703.299 328.899L704.011 328.958C705.054 332.24 704.655 374.967 703.47 378.002C700.276 371.854 703.364 341.248 701.568 332.443Z"/><path fill="#E2E5E8" d="M693.013 395.613C694.711 397.519 696.361 399.401 698.144 401.231C698.653 404.899 695.556 408.093 693.143 410.515C692.726 406.369 692.973 399.936 693.013 395.613Z"/><path fill="#E2E5E8" d="M702.727 379.998C704.975 384.305 705.397 389.334 703.898 393.955C703.609 394.835 703.232 395.682 702.771 396.485C701.445 393.483 701.744 383.111 702.727 379.998Z"/><path fill="#ECECEB" d="M681.027 355.224C682.162 355.856 689.449 363.458 691.181 365.127L691.015 390.766C689.188 389.65 682.994 384.11 681.023 382.418L681.027 355.224Z"/><path fill="#ECECEB" d="M645.519 364.048C646.679 367.614 646.248 378.022 646.4 382.358C647.041 400.715 645.154 421.491 646.137 439.614C641.241 442.419 632.16 445.352 626.555 447.092L624.987 447.545C618.536 449.359 612.094 450.651 605.915 452.372C605.07 452.456 604.391 452.558 603.543 452.546C602.916 434.247 603.948 414.377 603.521 395.955C603.43 392.054 603.9 378.429 603.095 375.691L605.801 375.371C611.63 373.745 618.509 372.273 624.461 370.858L626.373 370.385C633.08 368.664 639.035 366.416 645.519 364.048Z"/><path fill="#ECECEB" d="M645.519 364.048C646.679 367.614 646.248 378.022 646.4 382.358C647.041 400.715 645.154 421.491 646.137 439.614C641.241 442.419 632.16 445.352 626.555 447.092L624.987 447.545C624.752 422.233 625.601 396.062 624.461 370.858L626.373 370.385C633.08 368.664 639.035 366.416 645.519 364.048Z"/><path fill="#1EB889" d="M624.461 370.858L626.373 370.385C626.944 395.566 626.428 421.805 626.555 447.092L624.987 447.545C624.752 422.233 625.601 396.062 624.461 370.858Z"/><path fill="#1EB889" d="M603.095 375.691L605.801 375.371C605.763 384.127 604.691 449.05 605.915 452.372C605.07 452.456 604.391 452.558 603.543 452.546C602.916 434.247 603.948 414.377 603.521 395.955C603.43 392.054 603.9 378.429 603.095 375.691Z"/><path fill="#ECECEB" d="M603.095 375.691C603.9 378.429 603.43 392.054 603.521 395.955C603.948 414.377 602.916 434.247 603.543 452.546C597.443 454.281 590.646 454.767 584.499 456.38L584.477 378.822C589.823 377.482 596.88 377.338 603.095 375.691Z"/><path fill="#1EB889" d="M582.773 378.827L584.477 378.822L584.499 456.38L582.517 456.643C582.429 430.594 583.046 404.921 582.773 378.827Z"/><path fill="#1EB889" d="M560.388 382.482C560.976 382.344 561.433 382.08 561.999 381.821C561.842 407.632 562.33 433.977 561.955 459.652L560.209 459.681C560.413 441.381 559.953 423.259 560.061 404.996C560.101 398.446 559.831 388.761 560.388 382.482Z"/><path fill="#2CC18F" d="M329.546 332.223C331.31 333.991 333.028 335.803 334.7 337.657L335.52 338.948L337.073 339.176C339.207 340.661 346.969 345.372 347.531 346.921L349.458 347.618C351.301 348.649 354.333 350.007 355.43 351.532L355.612 352.896C358.127 351.451 360.878 353.206 362.387 355.369C362.701 355.478 363.359 355.735 363.655 355.774C366.019 356.093 375.365 359.743 377.054 361.139L378.988 361.201C382.097 362.375 385.231 363.482 388.386 364.523C389.384 365.216 389.086 364.929 389.859 365.906C391.824 365.61 393.329 366.231 395.121 367.103L397.459 367.646C395.062 373.561 398.096 408.309 396.972 416.477C396.225 421.911 398.265 439.013 396.575 443.64L396.318 443.174C395.621 443.824 396.045 443.568 394.999 443.863C389.37 441.873 384.064 439.692 378.54 437.443L376.933 436.697C372.494 434.59 368.021 432.579 363.824 430.025L362.117 429.274C357.733 426.468 352.912 423.564 348.913 420.285C348.538 419.854 347.789 419.448 347.262 419.105C344.044 416.135 340.157 412.762 337.42 409.407C335.618 407.198 335.674 407.101 335.971 404.862L335.259 403.962L333.919 403.989C329.551 397.69 326.943 382.951 330.75 376.108L330.021 375.476L329.464 375.645C328.644 374.652 329.521 336.767 329.546 332.223Z"/><path fill="#ECECEB" d="M389.859 365.906C391.824 365.61 393.329 366.231 395.121 367.103L397.459 367.646C395.062 373.561 398.096 408.309 396.972 416.477C396.225 421.911 398.265 439.013 396.575 443.64L396.318 443.174C395.621 443.824 396.045 443.568 394.999 443.863C389.37 441.873 384.064 439.692 378.54 437.443L376.933 436.697C375.563 428.477 378.019 373.473 375.965 371.112L377.313 370.72L378.268 368.861L378.178 371.345L378.555 370.243C381.508 368.743 386.6 367.079 389.859 365.906Z"/><path fill="#1EB889" d="M375.965 371.112L377.313 370.72L378.268 368.861L378.178 371.345L378.555 370.243C379.237 373.998 378.903 387.101 378.872 391.862L378.54 437.443L376.933 436.697C375.563 428.477 378.019 373.473 375.965 371.112Z"/><path fill="#1EB889" d="M395.121 367.103L397.459 367.646C395.062 373.561 398.096 408.309 396.972 416.477C396.225 421.911 398.265 439.013 396.575 443.64L396.318 443.174C395.621 443.824 396.045 443.568 394.999 443.863C396.087 440.807 395.047 375.75 395.121 367.103Z"/><path fill="#ECECEB" d="M375.965 371.112C378.019 373.473 375.563 428.477 376.933 436.697C372.494 434.59 368.021 432.579 363.824 430.025C364.114 412.416 363.869 394.354 363.979 376.687C367.573 374.533 372.1 372.677 375.965 371.112Z"/><path fill="#ECECEB" d="M349.052 387.206C353.125 383.834 357.454 380.785 362.001 378.086C362.126 395.017 361.858 412.459 362.117 429.274C357.733 426.468 352.912 423.564 348.913 420.285C349 409.324 348.881 398.124 349.052 387.206Z"/><path fill="#ECECEB" d="M355.612 352.896C358.127 351.451 360.878 353.206 362.387 355.369C361.601 358.199 361.966 372.482 362 376.021C357.314 379.008 353.452 381.681 348.953 384.925L348.875 357.923C351.657 356.085 353.148 355.15 355.612 352.896Z"/><path fill="#E2E5E8" d="M336.676 399.802C340.351 394.995 342.604 392.434 347.314 388.662C347.335 394.917 347.813 414.198 347.262 419.105C344.044 416.135 340.157 412.762 337.42 409.407C335.618 407.198 335.674 407.101 335.971 404.862C336.833 403.579 336.643 401.461 336.676 399.802Z"/><path fill="#E2E5E8" d="M337.073 339.176C339.207 340.661 346.969 345.372 347.531 346.921C347.248 349.628 347.292 354.266 347.238 357.128C343.698 359.972 339.949 363.465 336.527 366.516C336.627 361.932 336.206 342.235 337.073 339.176Z"/><path fill="#E2E5E8" d="M329.546 332.223C331.31 333.991 333.028 335.803 334.7 337.657C334.864 347.715 334.426 358.831 334.769 368.617C332.871 371.022 331.371 372.703 330.021 375.476L329.464 375.645C328.644 374.652 329.521 336.767 329.546 332.223Z"/><path fill="#E2E5E8" d="M363.655 355.774C366.019 356.093 375.365 359.743 377.054 361.139C376.972 363.462 377.045 366.348 377.047 368.713C372.611 370.59 368.16 372.798 363.805 374.882C363.721 369.184 364.14 361.202 363.655 355.774Z"/><path fill="#E2E5E8" d="M334.619 371.38C334.6 375.669 335.15 401.557 333.919 403.989C329.551 397.69 326.943 382.951 330.75 376.108C331.984 374.55 333.282 372.831 334.619 371.38Z"/><path fill="#E2E5E8" d="M378.988 361.201C382.097 362.375 385.231 363.482 388.386 364.523C385.564 365.709 381.94 366.935 379.014 368.015L378.988 361.201Z"/><path fill="#E2E5E8" d="M348.97 355.954C348.956 353.381 348.71 349.97 349.458 347.618C351.301 348.649 354.333 350.007 355.43 351.532C353.797 352.895 350.828 354.727 348.97 355.954Z"/><path fill="#E2E5E8" d="M346.81 359.359C347.294 361.693 347.104 383.133 347.121 386.663C343.185 389.971 340.229 393.031 336.873 396.889C336.215 394.742 336.462 373.318 336.349 368.864C339.975 365.286 342.969 362.635 346.81 359.359Z"/><path fill="#ECECEB" d="M405.289 256.091C439.933 270.217 478.676 285.289 512.52 300.386C512.579 313.383 512.471 326.381 512.197 339.375C509.341 339.57 414.58 298.935 405.389 293.923L405.289 256.091Z"/><path fill="#ECECEB" d="M624.694 256.958L625.382 257.201C626.403 258.968 626.033 289.44 626.033 293.715L522.692 338.512C522.312 338.512 522.599 338.546 521.623 338.232C520.916 327.862 521.504 309.899 521.488 298.932C544.973 289.823 568.478 279.37 592.029 270.215C602.937 265.975 613.614 261.02 624.694 256.958Z"/><path fill="#E2E5E8" d="M591.965 735.674L593.721 735.436C599.664 737.376 639.945 771.453 646.964 777.989C641.283 775.008 635.129 772.23 629.298 769.489C617.632 763.819 606.144 757.692 594.519 751.931C585.635 747.528 576.532 743.503 567.762 738.885C575.87 738.141 583.944 737.07 591.965 735.674Z"/><path fill="#E2E5E8" d="M438 735.495C445.122 736.937 456.855 738.106 464.327 739.023C444.446 747.676 422.107 759.242 402.301 768.834C395.96 772.138 389.648 775.498 383.367 778.915C393.275 769.94 405.34 760.67 415.82 752.426C422.775 746.954 430.826 740.386 438 735.495Z"/><path fill="#E2E5E8" d="M515.817 275.047C521.428 276.955 530.318 280.566 535.261 283.408C529.33 286.022 521.857 289.451 515.825 291.599C510.533 288.829 500.884 285.53 495.127 283.416C501.697 281.004 509.729 278.245 515.817 275.047Z"/><path fill="#E2E5E8" d="M515.46 251.518C519.314 251.949 531.673 257.31 535.588 259.102C529.565 261.633 523.252 263.867 517.113 266.134C517.084 266.146 517.056 266.164 517.025 266.171C513.566 266.915 501.176 260.603 497.256 258.942C502.805 256.391 509.694 253.873 515.46 251.518Z"/><path fill="#E2E5E8" d="M545.658 262.987C548.774 263.182 561.069 269.399 564.528 271.069C558.867 273.059 551.966 276.078 546.492 278.532C540.253 275.777 533.599 274.264 527.526 270.445L545.658 262.987Z"/><path fill="#E2E5E8" d="M484.131 263.426C487.532 263.352 499.605 269.255 503.213 270.944L486.195 278.418C483.601 278.285 469.48 272.574 466.618 271.416C472.378 268.699 478.323 266.067 484.131 263.426Z"/><path fill="#E2E5E8" d="M574.089 252.542C580.419 253.248 589.258 256.914 595.054 259.523C589.237 261.431 583.699 263.729 578.021 266.009C573.527 266.004 561.516 261.081 556.995 259.293C562.809 256.359 567.988 254.535 574.089 252.542Z"/><path fill="#E2E5E8" d="M456.051 252.478C460.826 252.585 470.315 256.6 474.764 258.414C468.851 261.266 462.794 263.809 456.616 266.033C451.957 266.563 441.873 261.606 437.556 259.573C443.705 257.573 450.025 254.894 456.051 252.478Z"/><path fill="#E2E5E8" d="M603.368 240.585C609.128 242.309 617.188 245.389 622.629 247.918C617.082 250.414 611.275 252.731 605.642 255.06C603.132 254.801 589.085 248.848 586.072 247.607C590.108 246.371 599.1 242.352 603.368 240.585Z"/><path fill="#E2E5E8" d="M487.283 239.459C490.365 239.816 501.172 245.035 504.469 246.567C498.615 249.302 492.645 251.783 486.577 254.004C481.962 253.94 473.561 249.39 469.592 247.053C475.54 244.643 481.439 242.111 487.283 239.459Z"/><path fill="#E2E5E8" d="M544.996 240.016C549.368 240.645 558.706 245.391 562.826 247.491C557.407 250.038 551.962 252.528 546.49 254.96C541.365 251.902 534.294 250.182 528.389 246.745C533.41 244.202 539.679 241.817 544.996 240.016Z"/><path fill="#E2E5E8" d="M570.578 229.453C575.974 229.556 586.795 234.587 591.629 237.034C586.719 239.155 581.712 241.043 576.624 242.692C573.369 243.706 559.676 237.626 555.891 236.049L570.578 229.453Z"/><path fill="#E2E5E8" d="M459.115 229.519C463.534 228.876 473.156 233.707 477.259 235.577C471.01 237.847 464.796 240.217 458.623 242.686C455.926 243.461 443.975 237.9 440.959 236.524C447.144 233.834 452.769 231.796 459.115 229.519Z"/><path fill="#E2E5E8" d="M427.17 240.962C430.906 240.568 441.079 245.779 444.702 247.5C439.36 250.193 433.227 252.634 427.638 254.76C425.017 255.237 413.173 249.385 410.313 247.918C415.436 245.554 421.862 243.115 427.17 240.962Z"/><path fill="#E2E5E8" d="M515.528 229.064C521.528 230.189 527.744 232.591 533.126 235.445C527.535 237.717 521.87 239.803 516.141 241.7C514.329 241.855 501.254 236.703 498.695 235.736C504.28 233.446 509.891 231.221 515.528 229.064Z"/><path fill="#E2E5E8" d="M488.758 217.976C491.655 218.205 501.578 222.779 504.783 224.234C499.906 226.164 494.047 228.935 489.168 231.091C486.979 231.442 475.995 225.649 473.538 224.397C477.558 222.289 484.385 219.753 488.758 217.976Z"/><path fill="#E2E5E8" d="M541.221 217.962C546.551 219.622 553.636 222.537 559.003 224.583C554.038 227.176 550.302 228.971 545.137 231.198C544.079 231.426 530.132 225.251 527.979 224.4C532.305 222.472 537.25 220.449 541.221 217.962Z"/><path fill="#E2E5E8" d="M514.009 208.48C517.626 208.076 526.51 212.175 530.02 213.871C525.476 215.929 521.851 217.495 517.128 219.232C513.743 220.153 504.603 215.383 501.03 213.724C505.332 211.916 509.658 210.167 514.009 208.48Z"/></svg>